G04 DipTrace 3.1.0.1*
G04 fr2311diptrace.gbl*
%MOIN*%
G04 #@! TF.FileFunction,Copper,L2,Bot*
G04 #@! TF.Part,Single*
G04 #@! TA.AperFunction,Conductor*
%ADD11C,0.006*%
G04 #@! TA.AperFunction,ComponentPad*
%ADD15R,0.066929X0.066929*%
%ADD16C,0.066929*%
G04 #@! TA.AperFunction,ViaPad*
%ADD18C,0.04*%
%FSLAX26Y26*%
G04*
G70*
G90*
G75*
G01*
G04 Bottom*
%LPD*%
X694000Y1044000D2*
D11*
X594000D1*
X675249Y794000D2*
Y844000D1*
X844000D1*
Y994000D1*
X744000D1*
X694000Y1044000D1*
Y944000D2*
X644000D1*
X594000Y994000D1*
X494000D1*
Y1294000D1*
X544000Y1344000D1*
X894000Y937749D2*
Y1094000D1*
X994000Y1194000D1*
Y1244000D1*
X544000D1*
X944000Y944000D2*
Y1094000D1*
X1044000Y1194000D1*
X944000D2*
X594000D1*
X544000Y1144000D1*
X1144000Y894000D2*
Y944000D1*
X1244000Y1044000D1*
D18*
X694000D3*
X594000D3*
X675249Y794000D3*
X694000Y1044000D3*
Y944000D3*
X894000Y937749D3*
X944000Y944000D3*
X1044000Y1194000D3*
X944000D3*
X1144000Y894000D3*
D15*
X544000Y1344000D3*
D16*
Y1244000D3*
Y1144000D3*
Y1044000D3*
Y944000D3*
Y844000D3*
Y744000D3*
Y644000D3*
D15*
X1244000D3*
D16*
Y744000D3*
Y844000D3*
Y944000D3*
Y1044000D3*
Y1144000D3*
Y1244000D3*
Y1344000D3*
M02*
