M48
INCH
T01C0.0191
T02C0.0433
%
T01
X+006940Y+010440
X+005940Y+010440
X+006940Y+009440
X+006752Y+007940
X+008940Y+009377
X+009440Y+009440
X+011440Y+008940
X+010440Y+011940
X+009440Y+011940
T02
X+005440Y+013440
X+005440Y+012440
X+005440Y+011440
X+005440Y+010440
X+005440Y+009440
X+005440Y+008440
X+005440Y+007440
X+005440Y+006440
X+012440Y+006440
X+012440Y+007440
X+012440Y+008440
X+012440Y+009440
X+012440Y+010440
X+012440Y+011440
X+012440Y+012440
X+012440Y+013440
T00
M30
